<svg width="215" height="30" viewBox="0 0 215 30" fill="none" xmlns="http://www.w3.org/2000/svg">
<path d="M36.3676 13.8049C36.9189 13.8049 37.5219 13.8873 38.1594 14.0191C38.7969 14.1675 39.3826 14.3982 39.9167 14.7443C40.4508 15.0904 40.8988 15.5353 41.2606 16.0792C41.6224 16.6395 41.7947 17.3152 41.7947 18.1227C41.7947 18.5347 41.7258 19.0127 41.6052 19.5565C41.4846 20.1004 41.3123 20.6607 41.0711 21.2375C41.2089 21.4023 41.3812 21.5177 41.5707 21.6001C41.7602 21.666 41.967 21.699 42.191 21.7154C42.5011 21.7154 42.8457 21.633 43.2075 21.4682C43.5865 21.3034 43.9655 21.0892 44.3618 20.8255C44.7581 20.5618 45.1543 20.2652 45.5506 19.9356C45.9469 19.606 46.3259 19.2764 46.6705 18.9303C47.015 18.6007 47.3424 18.2875 47.6353 17.9744C47.9282 17.6778 48.1521 17.4141 48.3589 17.2163C48.4623 17.1174 48.5829 17.068 48.7379 17.068C48.9447 17.068 49.117 17.1669 49.2893 17.3811C49.4443 17.5789 49.5305 17.8755 49.5305 18.2381C49.5305 18.6007 49.4099 19.0127 49.1859 19.4906C48.9619 19.9685 48.5312 20.4629 47.9109 20.9738C47.5664 21.3364 47.1529 21.7484 46.7049 22.2263C46.257 22.7043 45.7573 23.1492 45.2577 23.5612C44.7408 23.9732 44.2067 24.3358 43.6554 24.616C43.1041 24.9126 42.5355 25.0445 41.9842 25.0445C41.6052 25.0445 41.2434 24.9785 40.8816 24.8797C40.5198 24.7643 40.1579 24.583 39.7961 24.3358C39.262 25.1104 38.659 25.819 37.9871 26.4618C37.3152 27.1045 36.5571 27.6483 35.7301 28.1098C34.9031 28.5712 34.0072 28.9173 33.0596 29.181C32.0948 29.4282 31.0955 29.5106 30.0101 29.4941C29.5966 29.4941 29.1315 29.4117 28.5801 29.2634C28.046 29.1151 27.5119 28.9008 27.0295 28.5383C26.5471 28.1757 26.1336 27.7143 25.8063 27.1375C25.4789 26.5606 25.3066 25.8685 25.3066 25.0445C25.3066 24.4841 25.41 23.8084 25.5995 23.0339C25.789 22.2593 26.0819 21.4518 26.4782 20.6113C26.8745 19.7872 27.3569 18.9632 27.9599 18.1392C28.5629 17.3317 29.2693 16.5901 30.079 15.9473C30.906 15.3046 31.8364 14.7772 32.8874 14.3817C33.9211 13.9862 35.0927 13.7884 36.3676 13.8049ZM35.2133 17.48C34.5241 17.48 33.8694 17.6448 33.2319 17.9579C32.5945 18.2875 32.0259 18.716 31.5435 19.2434C31.0439 19.7872 30.6648 20.3805 30.3547 21.0562C30.0618 21.7319 29.9068 22.4241 29.9068 23.1327C29.9068 23.3964 29.924 23.6931 29.9757 24.0062C30.0101 24.3193 30.1135 24.616 30.2513 24.8797C30.3892 25.1598 30.5959 25.3741 30.8543 25.5718C31.1128 25.7531 31.4746 25.852 31.9053 25.852C32.5772 25.852 33.2319 25.6872 33.8694 25.3411C34.5069 24.995 35.0754 24.55 35.5751 24.0062C36.0747 23.4623 36.471 22.8361 36.7639 22.1439C37.0567 21.4518 37.2118 20.7431 37.2118 20.0345C37.2118 19.7543 37.1946 19.4576 37.1601 19.161C37.1257 18.8644 37.0395 18.5842 36.9017 18.337C36.7639 18.0898 36.5571 17.8755 36.2987 17.7107C36.023 17.5624 35.6612 17.48 35.2133 17.48Z" fill="white"/>
<path d="M67.3287 21.1717C66.8635 21.9957 66.0882 22.9515 65.3129 23.5943C64.3826 24.3853 60.8334 27.4177 60.2132 25.1269C59.7135 23.2811 61.4536 20.3971 62.1083 18.7161C62.6597 17.2823 64.1586 14.2499 61.0746 14.4642C60.1615 14.5301 59.5929 15.2223 58.8176 14.9091C57.8356 14.5301 57.3015 14.1511 56.1816 13.9203C53.8729 13.4589 51.3403 14.2005 49.514 15.5684C46.5162 17.7932 42.9843 23.8579 45.4997 27.4012C48.7904 32.0322 54.4415 27.8132 56.7329 24.8797C55.5441 27.7638 57.4221 30.3182 60.7817 29.214C64.1758 28.0934 66.7774 25.2588 69.3445 22.9845C70.1198 22.2264 67.9662 20.0345 67.3287 21.1717ZM55.9576 21.7814C54.9067 23.347 53.5628 25.061 51.6504 25.7532C49.0488 26.6925 47.2054 25.1764 48.8421 21.6331C49.7552 19.639 51.7193 17.4636 54.1314 17.4801C54.9928 17.4801 56.285 17.958 56.5779 18.8644C56.8363 19.606 56.6468 20.7432 55.9576 21.7814Z" fill="white"/>
<path d="M70.5671 22.8361C70.4293 23.1657 70.3087 23.5447 70.1881 23.9897C70.0675 24.4182 70.033 24.8137 70.0502 25.1433C70.0675 25.3576 70.1192 25.5224 70.2225 25.6377C70.3259 25.7531 70.4982 25.8025 70.7394 25.7861C71.0495 25.7696 71.4113 25.6542 71.8593 25.44C72.3072 25.2257 72.7724 24.962 73.2893 24.6489C73.7889 24.3193 74.323 23.9568 74.8571 23.5447C75.4084 23.1327 75.9425 22.7042 76.4766 22.2758C77.0107 21.8308 77.5276 21.4023 78.01 20.9738C78.4924 20.5453 78.9231 20.1333 79.3022 19.7708C79.4055 19.6719 79.5434 19.5895 79.6984 19.5236C79.8535 19.4741 79.9913 19.4412 80.1119 19.4247C80.4048 19.4082 80.646 19.4741 80.8528 19.6554C81.0595 19.8367 81.1801 20.0839 81.1973 20.397C81.2146 20.6937 81.1457 21.0233 80.9734 21.4023C80.8011 21.7814 80.4737 22.1604 79.9913 22.5394C79.1299 23.4294 78.2512 24.2699 77.3725 25.0774C76.4939 25.8849 75.5979 26.6101 74.702 27.2363C73.8061 27.8626 72.9102 28.3899 72.0316 28.7855C71.1357 29.181 70.2742 29.4117 69.3955 29.4447C68.7409 29.4612 68.2412 29.4117 67.8277 29.2799C67.4142 29.1645 67.1386 29.0656 66.8457 28.8184C66.57 28.5877 66.3805 28.2746 66.2599 27.912C66.1221 27.5659 66.0531 27.1869 66.0187 26.7749C65.967 26.0992 66.0187 25.3905 66.1565 24.6489C66.3116 23.9238 66.5011 23.2481 66.7423 22.6218C67.1558 21.5012 67.5865 20.3805 68.0172 19.2764C68.448 18.1722 68.8442 17.1504 69.206 16.2275L74.702 2.28517C74.926 1.72484 75.2361 1.31283 75.6669 1.06563C76.0976 0.818426 76.5283 0.670103 76.9763 0.637143C77.4242 0.604182 77.8549 0.686583 78.234 0.900827C78.6302 1.11507 78.837 1.47764 78.8887 2.00501C78.9059 2.25221 78.8714 2.5159 78.7681 2.81254C78.6647 3.09271 78.5441 3.40583 78.3718 3.75192C78.0617 4.42761 77.6999 5.2681 77.2692 6.24044C76.8384 7.22926 76.3905 8.284 75.9081 9.43762C75.4257 10.5912 74.926 11.7943 74.4264 13.0468C73.9268 14.2993 73.4271 15.5024 72.9447 16.6889C72.4623 17.8755 72.0143 18.9962 71.6008 20.0509C71.239 21.1551 70.8772 22.0615 70.5671 22.8361Z" fill="white"/>
<path d="M115.052 15.3869C115.569 16.6064 114.38 18.8477 113.846 19.9519C113.14 21.4022 111.951 22.836 111.434 24.3521C110.796 26.2309 113.639 24.5334 114.208 24.2203C115.879 23.3139 117.464 22.2262 118.928 21.0231C119.566 20.4958 121.616 17.9908 122.185 19.7377C122.684 21.2539 121.065 22.7206 120.014 23.5611C117.361 25.6541 113.605 28.225 110.331 29.3622C109.142 29.7742 108.092 29.0655 107.661 28.258C106.937 26.9231 107.23 25.3904 107.73 24.1214C108.247 22.8195 108.953 21.5835 109.59 20.331C110.056 19.4245 111.572 16.8536 109.384 17.1008C106.093 17.4799 103.939 21.3857 102.475 23.8083C101.717 25.0608 101.217 26.3792 100.528 27.6647C99.925 28.7853 98.2538 30.3345 97.0823 28.7689C96.238 27.6317 97.3235 25.72 97.7542 24.6158C98.495 22.7371 99.2876 20.8748 100.097 19.029C100.666 17.6941 101.114 15.6341 102.492 14.843C104.318 13.7883 105.283 15.667 104.68 17.1503C105.938 15.3869 108.247 14.3157 110.383 13.9366C112.02 13.6564 114.311 13.6235 115.052 15.3869Z" fill="white"/>
<path d="M125.252 14.7114C125.252 15.1564 125.097 15.6672 124.925 16.1287C124.701 16.7385 124.459 17.3482 124.235 17.9745C123.788 19.1775 123.374 20.3806 123.064 21.6166C122.788 22.6549 122.392 24.0722 122.909 25.094C123.443 26.1487 125.769 25.3412 127.078 23.7096C128.732 21.6166 129.904 19.7214 131.179 17.3647C131.747 16.31 132.35 15.1069 133.263 14.2664C134.021 13.5743 135.228 13.6237 135.693 14.596C135.693 14.596 137.312 17.4306 130.317 25.3741C128.87 27.0222 125.683 29.8568 122.134 29.4612C119.256 29.1316 118.619 26.1981 118.86 23.8415C119.136 21.2376 120.049 18.6831 120.91 16.2111C120.91 16.2111 121.72 13.5083 123.564 13.4919C125.218 13.4589 125.252 14.7114 125.252 14.7114Z" fill="white"/>
<path d="M151.147 16.1286C151.577 15.6177 151.629 14.7277 152.042 14.2168C152.697 13.4258 154.592 14.052 154.627 15.2057C154.661 16.557 154.093 17.2822 152.577 18.7324C152.008 19.2763 149.355 22.1603 148.149 23.3799C146.305 25.2092 143.307 29.115 140.499 29.4611C139.19 29.6259 137.863 29.2798 137.019 28.2086C136.157 27.1209 136.14 25.5058 136.399 24.2204C136.709 22.6548 137.398 21.221 137.932 19.7048C138.449 18.2875 138.966 16.8702 139.517 15.4529C140.086 14.3322 141.653 13.4588 142.618 13.9037C143.962 14.5135 143.342 16.5076 142.894 17.5623C142.411 18.7489 141.964 19.952 141.481 21.1386C141.05 22.2263 140.327 23.7425 140.62 24.929C140.982 26.3463 144.186 24.0061 145.134 22.8855C145.151 22.8855 146.633 21.4847 151.147 16.1286ZM141.464 10.5582C141.326 9.14092 142.325 7.75658 143.807 7.47641C145.013 7.24569 146.443 7.49289 146.598 8.87724C146.736 10.1297 145.874 11.4482 144.565 11.7613C143.428 12.0085 141.74 11.9096 141.464 10.5582Z" fill="white"/>
<path d="M152.629 19.2764C151.957 18.2052 148.597 17.8097 149.734 14.7608C150.647 12.3053 153.232 12.091 154.283 12.6019C155.454 13.1787 156.161 15.2223 154.662 16.689C157.401 19.0951 159.486 21.8638 158.418 25.028C157.246 28.5219 153.404 30.038 150.458 29.2964C147.477 28.5383 146.168 26.9233 146.168 25.1434C146.168 24.237 146.53 23.2317 147.701 23.0174C149.597 22.6714 149.803 26.775 151.664 26.4948C159.279 25.3741 152.629 19.2764 152.629 19.2764Z" fill="white"/>
<path d="M178.041 18.9632C176.921 20.3146 175.44 22.3251 174.216 23.5941C172.39 25.5223 169.375 29.0821 166.549 29.4282C165.24 29.593 164.034 29.2798 163.19 28.2086C162.328 27.1209 162.311 25.5058 162.57 24.2204C162.88 22.6548 163.569 21.221 164.103 19.7048C164.62 18.2875 165.257 16.5406 165.826 15.1233C166.394 14.0026 167.48 13.1127 168.979 13.5741C170.391 14.0026 169.651 16.178 169.22 17.2492C168.737 18.4358 168.169 19.9685 167.687 21.155C167.256 22.2427 166.532 23.7589 166.825 24.9455C167.187 26.3628 170.254 23.9732 171.201 22.902C171.201 22.902 171.58 22.5888 175.732 17.5129L178.041 18.9632ZM167.652 10.5582C167.514 9.14092 168.514 7.75658 169.995 7.47641C171.201 7.24569 172.631 7.49289 172.786 8.87724C172.924 10.1297 172.063 11.4482 170.753 11.7613C169.616 12.0085 167.928 11.9096 167.652 10.5582Z" fill="white"/>
<path d="M194.839 17.6448C194.632 18.1557 193.995 18.8479 193.995 18.8479C193.65 19.1775 193.271 19.5071 192.875 19.8532C192.479 20.1828 192.083 20.4794 191.686 20.7431C191.29 21.0068 190.911 21.2211 190.532 21.3859C190.153 21.5507 189.826 21.6331 189.516 21.6331C189.292 21.6331 189.085 21.6001 188.912 21.5177C188.723 21.4518 188.551 21.3199 188.413 21.1551C188.654 20.5783 188.826 20.018 188.947 19.4741C189.068 18.9303 189.119 18.4688 189.136 18.0404C189.136 17.2328 188.964 16.5571 188.62 15.9968C188.258 15.453 187.827 15.008 187.276 14.6619C186.742 14.3323 186.242 14.1016 185.605 13.9697C184.967 13.8214 184.243 13.8049 183.692 13.8049C182.417 13.8049 181.28 13.9203 180.229 14.3158C179.178 14.7113 178.248 15.2222 177.421 15.865C176.594 16.5077 175.887 17.2328 175.302 18.0568C174.716 18.8644 174.216 19.6884 173.82 20.5124C173.424 21.3364 173.131 22.144 172.941 22.9185C172.752 23.6931 172.648 24.3688 172.648 24.9291C172.648 25.7531 172.804 26.4453 173.148 27.0221C173.475 27.5989 173.889 28.0604 174.371 28.4229C174.854 28.7855 175.371 29.0327 175.905 29.1975C176.439 29.3458 176.956 29.4942 177.593 29.5106C178.575 29.5106 179.419 29.3294 180.384 29.0657C181.332 28.8185 182.228 28.4559 183.055 27.9944C183.882 27.533 184.623 26.9892 185.312 26.3464C185.984 25.7037 186.587 24.995 187.121 24.2205C187.483 24.4677 187.844 24.649 188.206 24.7643C188.568 24.8797 188.93 24.9291 189.309 24.9291C189.86 24.9291 190.411 24.7808 190.98 24.5006C191.531 24.204 192.065 23.8579 192.582 23.4459C193.099 23.0339 193.582 22.5889 194.029 22.111C194.477 21.6331 194.891 21.2211 195.236 20.8585C195.856 20.3476 196.269 19.8532 196.493 19.3753C196.717 18.8973 196.838 18.4853 196.838 18.1228C196.838 17.7602 196.769 17.48 196.597 17.2823C196.442 17.0845 196.252 16.9856 196.045 16.9691C196.045 16.9856 195.029 17.1339 194.839 17.6448ZM184.106 22.078C183.813 22.7702 183.416 23.3965 182.917 23.9403C182.417 24.4842 181.849 24.9291 181.211 25.2752C180.574 25.6213 179.919 25.7861 179.247 25.7696C178.816 25.7696 178.455 25.6707 178.196 25.4894C177.938 25.3082 177.731 25.0774 177.593 24.8138C177.455 24.5336 177.369 24.2534 177.317 23.9403C177.283 23.6272 177.249 23.3305 177.249 23.0668C177.249 22.3582 177.404 21.666 177.696 20.9903C177.989 20.3146 178.386 19.7049 178.868 19.1775C179.35 18.6501 179.919 18.2216 180.556 17.892C181.194 17.5624 181.849 17.4141 182.538 17.4141C182.986 17.4141 183.348 17.4965 183.606 17.6613C183.864 17.8261 184.071 18.0239 184.209 18.2876C184.347 18.5348 184.433 18.8149 184.467 19.1116C184.502 19.4082 184.519 19.7049 184.519 19.985C184.536 20.6772 184.399 21.3694 184.106 22.078Z" fill="white"/>
<path d="M195.684 15.3869C196.58 13.1456 200.094 12.3545 199.267 15.766C199.25 15.8484 198.94 16.7218 198.905 16.8042C200.37 14.6618 203.73 13.1126 206.503 14.085C210.053 15.321 208.054 19.6553 206.986 21.6494C206.641 22.2757 204.815 25.0279 205.711 25.5717C206.538 26.0826 209.656 23.0008 210.311 22.4734C211.207 21.7483 211.379 21.4846 212.878 20.5947C214.446 19.6553 215.566 20.9243 214.67 22.424C212.654 25.753 201.335 33.4328 201.249 26.9561C201.231 25.2751 202.506 22.6712 203.23 21.1715C203.661 20.2816 205.263 18.0073 204.677 17.0349C203.023 14.2827 197.889 21.6989 197.286 22.7206C196.252 24.484 195.684 26.4946 194.633 28.225C193.685 29.7742 191.152 30.0873 191.084 27.9778C191.032 26.2639 192.307 23.9402 192.91 22.391C193.685 20.3969 194.529 18.4358 195.287 16.4416C195.339 16.3592 195.649 15.4858 195.684 15.3869Z" fill="white"/>
<path d="M100.304 24.1875C99.8562 25.3246 98.5123 26.8079 97.4958 27.3188C92.8268 29.7249 85.2461 30.7961 80.7149 27.0056C77.0452 23.9403 78.165 17.925 79.7846 15.2058C81.5591 12.2063 84.2813 10.822 87.5203 10.41C85.6768 2.25226 92.913 0.192227 92.913 0.192227C95.6179 -0.466984 98.7708 0.653674 100.184 2.26874C100.184 2.26874 104.508 6.22401 100.769 7.16338C99.3738 7.52595 99.0809 6.02624 98.2884 5.16927C96.9962 3.78493 95.8246 3.19164 93.9122 3.86733C93.9122 3.86733 89.1915 5.28463 92.2066 10.2287C93.8089 10.2287 93.8778 11.8767 92.4478 12.47C91.2073 12.9974 89.7084 13.0633 88.3818 13.1457C85.5562 13.294 84.4191 14.7608 83.7644 15.8979C82.455 18.2052 81.7659 22.4406 84.1607 24.9291C85.987 26.8408 89.45 26.5442 91.8103 25.9509C93.0163 25.6378 94.8771 25.0115 95.8936 24.2864C95.8936 24.2864 98.7708 22.3912 99.9251 20.1663C101.079 17.9415 100.304 24.1875 100.304 24.1875Z" fill="white"/>
<path d="M15.089 13.8049C14.1242 13.8049 13.3489 14.0521 13.3489 14.0521C12.7114 14.2499 12.2979 14.4641 12.1256 14.7278C11.9534 14.9915 11.9189 15.3211 12.0567 15.7166C12.0567 15.7166 12.7976 17.3152 15.089 17.48" fill="white"/>
<path d="M35.5401 13.8049H15.0894V17.4635H19.1554C16.1576 27.2034 9.24882 25.5883 9.24882 25.5883C8.21509 25.4235 7.18135 24.995 6.66449 24.5665C3.35654 21.8802 4.06292 19.3917 5.23449 15.7496C5.23449 15.7496 8.284 6.52062 14.6759 4.1145C16.6572 3.37289 19.1554 3.90026 19.6378 5.54829C19.9652 6.63599 19.5689 7.69072 21.1023 7.83905C22.2394 7.93793 23.411 7.03151 23.1181 5.49885C21.8087 -1.71952 13.4699 0.851408 13.4699 0.851408C13.4699 0.851408 7.33641 2.48296 1.20293 15.0574C-0.916224 19.3917 -0.295984 24.4512 3.54606 27.4506C8.30123 31.1586 15.1928 29.1975 18.3629 26.3794C19.1037 25.7201 20.1547 24.583 20.8094 23.3305C21.8948 21.254 22.6357 19.7543 23.1008 17.48H35.5401V13.8049Z" fill="white"/>
<path d="M156.884 19.0126C156.884 19.0126 161.45 24.962 164.482 17.9085C168.031 9.63537 164.965 20.4959 164.965 20.4959C164.965 20.4959 164.827 23.9732 161.036 24.583C156.367 25.3411 156.884 19.0126 156.884 19.0126Z" fill="white"/>
<path d="M142.325 17.4634H138.397H134.331V13.7883H142.067L142.325 17.4634Z" fill="white"/>
</svg>
