<svg width="1439" height="836" viewBox="0 0 1439 836" fill="none" xmlns="http://www.w3.org/2000/svg">
<mask id="mask0" style="mask-type:alpha" maskUnits="userSpaceOnUse" x="0" y="0" width="1440" height="836">
<path d="M0 731.111C0 731.111 152.214 847 595.214 835.111C1023.71 823.611 1026.21 776.111 1185.21 758.111C1316.21 743.281 1439.04 784.111 1439.04 784.111V0L0 1.11121V731.111Z" fill="#ECECEC"/>
</mask>
<g mask="url(#mask0)">
<path d="M-184.717 806.363L211.095 453.185L475.546 639.637L809.292 219.111L949.875 496.863L1058.47 413.547L1425.09 683.314L1555.77 588.069L1807.04 838.111H-221.959L-184.717 806.363Z" fill="#F1F1F1"/>
<path d="M211.096 453.185L359.649 754.795L475.547 639.637L211.096 453.185Z" fill="#E7E8E9"/>
<path d="M809.296 219.111L752.288 488.879L882.465 627.801L801.99 838.111H1123.78L809.296 219.111Z" fill="#E7E8E9"/>
<path d="M1058.47 413.547L1179.68 603.943L1159.2 671.385L1399.63 780.908L1425.09 683.314L1058.47 413.547Z" fill="#E7E8E9"/>
<path d="M749.216 606.49H732.777V851.583H749.216V606.49Z" fill="#FBFBFB"/>
<path d="M719.961 701.47H703.523V851.583H719.961V701.47Z" fill="#FBFBFB"/>
<path d="M690.66 738.466H674.222V852.035H690.66V738.466Z" fill="#FBFBFB"/>
<path d="M497.479 720.51H481.041V854.975H497.479V720.51Z" fill="#FBFBFB"/>
<path d="M526.731 677.001H510.293V852.714H526.731V677.001Z" fill="#FBFBFB"/>
<path d="M556.032 594.052H539.594V852.714H556.032V594.052Z" fill="#FBFBFB"/>
<path d="M661.408 658.683H644.97V852.849H661.408V658.683Z" fill="#FBFBFB"/>
<path d="M637.995 597.806H621.557V852.849H637.995V597.806Z" fill="#FBFBFB"/>
<path d="M608.696 549.411H592.258V852.849H608.696V549.411Z" fill="#FBFBFB"/>
<path d="M584.695 482.111H568.257V852.894H584.695V482.111Z" fill="#FBFBFB"/>
<g opacity="0.33">
<path opacity="0.33" d="M1330.26 614.489H1313.82V859.583H1330.26V614.489Z" fill="#777777"/>
<path opacity="0.33" d="M1300.96 709.469H1284.52V859.583H1300.96V709.469Z" fill="#777777"/>
<path opacity="0.33" d="M1271.71 746.466H1255.27V860.035H1271.71V746.466Z" fill="#777777"/>
<path opacity="0.33" d="M1078.48 728.51H1062.04V862.975H1078.48V728.51Z" fill="#777777"/>
<path opacity="0.33" d="M1107.78 685.046H1091.34V860.759H1107.78V685.046Z" fill="#777777"/>
<path opacity="0.33" d="M1137.03 602.052H1120.59V860.714H1137.03V602.052Z" fill="#777777"/>
<path opacity="0.33" d="M1242.41 666.729H1225.97V860.895H1242.41V666.729Z" fill="#777777"/>
<path opacity="0.33" d="M1218.99 605.851H1202.56V860.895H1218.99V605.851Z" fill="#777777"/>
<path opacity="0.33" d="M1189.74 557.411H1173.3V860.849H1189.74V557.411Z" fill="#777777"/>
<path opacity="0.33" d="M1165.74 490.111H1149.3V860.894H1165.74V490.111Z" fill="#777777"/>
</g>
<path d="M560.041 587.63L569.671 567.327L569.829 567.012L570.145 567.201L603.648 587.188L602.795 587.44L621.962 545.953L622.373 545.071L623.162 545.607L662.285 572.308L661.591 572.151L701.535 566.382L701.882 566.319L702.198 566.476L741.29 586.621L739.806 587.062L757.426 557.176L775.077 527.322L775.74 526.187L776.687 527.101L804.759 553.74L803.433 553.866L845.966 496.806L846.85 495.608L846.914 497.09L848.84 535.487L848.24 535.14L866.333 526.566L866.681 526.408L866.87 526.723L887.363 563.355L886.669 563.387L898.099 539.27L909.498 515.122L909.846 514.365L910.383 515.027L940.285 551.376L939.117 551.47L975.746 484.511L976.535 483.029L977.483 484.417C984.872 495.198 992.387 505.948 1000.09 516.541C1003.94 521.805 1007.86 527.101 1011.93 532.145C1012.94 533.406 1013.99 534.667 1015.06 535.865C1015.6 536.464 1016.13 537.063 1016.7 537.599C1016.98 537.883 1017.27 538.135 1017.55 538.387C1017.84 538.608 1018.12 538.86 1018.31 538.923L1018.34 538.955C1018.34 538.955 1018.15 538.892 1017.9 539.018C1017.77 539.081 1017.65 539.176 1017.58 539.27C1017.55 539.302 1017.52 539.333 1017.49 539.396C1017.46 539.428 1017.49 539.396 1017.49 539.396L1017.52 539.365L1017.65 539.081L1018.18 537.978L1019.26 535.771L1021.44 531.357L1056.2 460.867L1056.93 459.386L1058.22 460.395L1095.61 489.965L1093.65 490.28L1122.83 446.587L1152.04 402.924L1153.77 400.339L1154.25 403.397L1160.94 448.163L1158.89 447.911L1180.27 395.737L1180.8 394.476L1181.72 395.516L1201.9 418.214L1200.82 418.246L1229.31 383.663L1257.85 349.111L1258.04 349.269L1230 384.23L1201.93 419.16L1201.39 419.822L1200.82 419.191L1180.43 396.714L1181.85 396.462L1160.88 448.793L1159.43 452.419L1158.83 448.541L1151.88 403.807L1154.06 404.28L1125.01 448.068L1095.89 491.825L1095.07 493.054L1093.94 492.14L1056.55 462.538L1058.57 462.097L1023.55 532.492L1021.37 536.906L1020.27 539.113L1019.73 540.216L1019.61 540.5L1019.57 540.531L1019.54 540.594C1019.48 540.689 1019.45 540.752 1019.38 540.846C1019.23 541.004 1019.04 541.193 1018.82 541.288C1018.37 541.477 1018 541.414 1017.77 541.382C1017.65 541.351 1017.55 541.319 1017.46 541.288C1017.36 541.256 1017.3 541.225 1017.21 541.193C1016.64 540.909 1016.32 540.626 1015.94 540.31C1015.6 540.027 1015.28 539.711 1014.96 539.428C1014.36 538.829 1013.8 538.198 1013.23 537.568C1012.12 536.307 1011.05 535.046 1010.04 533.753C1005.9 528.615 1002.02 523.318 998.165 518.022C994.313 512.695 990.555 507.335 986.798 501.945C983.072 496.554 979.346 491.163 975.683 485.709L977.451 485.615L940.254 552.258L939.749 553.173L939.086 552.353L909.593 515.752L910.477 515.658L898.92 539.711L887.395 563.797L887.047 564.49L886.669 563.828L866.207 527.165L866.712 527.322L848.65 535.928L848.082 536.181L848.05 535.55L845.872 497.184L846.85 497.468L804.854 554.938L804.254 555.726L803.527 555.033L775.235 528.615L776.845 528.394L759.32 558.311L741.732 588.197L741.195 589.111L740.248 588.607L701.219 568.368L701.851 568.462L661.875 574.042L661.496 574.105L661.18 573.885L622.246 546.994L623.446 546.679L603.869 587.945L603.585 588.544L603.016 588.197L569.798 567.769L570.271 567.643L560.262 587.756L560.041 587.63Z" fill="#C0C0C0"/>
</g>
</svg>
